<svg width="105" height="105" viewBox="0 0 105 105" fill="none" xmlns="http://www.w3.org/2000/svg">
<path d="M64.2325 52.4954C64.2325 59.746 59.5932 67.0105 51.1064 67.0105C42.6241 67.0105 37.5218 59.746 37.5218 52.4954C37.5218 45.2494 42.6241 37.9848 51.1064 37.9848C59.5932 37.9848 64.2325 45.2494 64.2325 52.4954ZM104.995 32.8131V105H52.5H32.8131C14.6911 104.995 0 90.3043 0 72.1869V0H52.5H72.1869C90.3043 0 104.995 14.6911 104.995 32.8131ZM77.8217 26.2477C73.525 26.2477 69.7145 28.3081 67.3207 31.4935C62.9315 28.2016 57.4773 26.2477 51.5694 26.2477C37.0727 26.2477 25.3217 37.9987 25.3217 52.4954C25.3217 66.992 37.0727 78.7477 51.5694 78.7477C57.4773 78.7477 62.9315 76.7938 67.3207 73.4972C67.6911 73.9926 68.0986 74.4603 68.5385 74.9001C70.9137 77.28 74.1964 78.7477 77.8217 78.7477V26.2477Z" fill="#26262E"/>
</svg>
