<svg width="17" height="17" viewBox="0 0 17 17" fill="none" xmlns="http://www.w3.org/2000/svg">
<g opacity="0.4">
<path d="M13.2078 13.4146C14.2165 13.4958 15.2314 13.3678 16.1868 13.0387C16.2233 12.5956 16.1317 12.1514 15.9227 11.7575C15.7137 11.3635 15.3958 11.036 15.0057 10.8127C14.6157 10.5894 14.1694 10.4794 13.7187 10.4956C13.2679 10.5118 12.8309 10.6535 12.4584 10.9042M13.207 13.4138L13.2078 13.4382C13.2078 13.6147 13.1982 13.7889 13.1783 13.9608C11.7333 14.7778 10.0958 15.2065 8.42984 15.2039C6.70182 15.2039 5.07972 14.7519 3.68137 13.9608C3.6609 13.7792 3.65106 13.5966 3.65191 13.4138M13.2078 13.4138C13.2047 12.5244 12.9448 11.6542 12.4584 10.9049C12.0268 10.2377 11.4313 9.68858 10.7271 9.30834C10.0229 8.9281 9.2328 8.72904 8.42984 8.72958C7.62702 8.72917 6.83706 8.92829 6.13303 9.30853C5.42901 9.68877 4.83365 10.2378 4.40205 10.9049C4.02953 10.6545 3.5927 10.513 3.14204 10.497C2.69138 10.4809 2.24531 10.5909 1.85541 10.8141C1.4655 11.0374 1.14769 11.3649 0.938705 11.7587C0.729723 12.1525 0.638111 12.5965 0.674463 13.0395C1.62918 13.3704 2.64427 13.498 3.65271 13.4138C3.65557 12.5245 3.91519 11.6543 4.40125 10.9049M10.8188 4.02099C10.8188 4.64539 10.5671 5.24421 10.1191 5.68573C9.67108 6.12724 9.06343 6.37528 8.42984 6.37528C7.79625 6.37528 7.1886 6.12724 6.74059 5.68573C6.29257 5.24421 6.04088 4.64539 6.04088 4.02099C6.04088 3.3966 6.29257 2.79777 6.74059 2.35626C7.1886 1.91474 7.79625 1.6667 8.42984 1.6667C9.06343 1.6667 9.67108 1.91474 10.1191 2.35626C10.5671 2.79777 10.8188 3.3966 10.8188 4.02099ZM15.5967 6.37528C15.5967 6.60716 15.5504 6.83677 15.4604 7.051C15.3703 7.26522 15.2383 7.45987 15.072 7.62384C14.9056 7.7878 14.7081 7.91786 14.4907 8.0066C14.2733 8.09533 14.0403 8.141 13.805 8.141C13.5697 8.141 13.3367 8.09533 13.1193 8.0066C12.902 7.91786 12.7044 7.7878 12.5381 7.62384C12.3717 7.45987 12.2397 7.26522 12.1497 7.051C12.0596 6.83677 12.0133 6.60716 12.0133 6.37528C12.0133 5.90699 12.2021 5.45787 12.5381 5.12673C12.8741 4.7956 13.3298 4.60957 13.805 4.60957C14.2802 4.60957 14.7359 4.7956 15.072 5.12673C15.408 5.45787 15.5967 5.90699 15.5967 6.37528ZM4.84639 6.37528C4.84639 6.60716 4.80005 6.83677 4.71001 7.051C4.61996 7.26522 4.48799 7.45987 4.32161 7.62384C4.15523 7.7878 3.95771 7.91786 3.74033 8.0066C3.52295 8.09533 3.28996 8.141 3.05467 8.141C2.81938 8.141 2.58639 8.09533 2.36901 8.0066C2.15162 7.91786 1.95411 7.7878 1.78773 7.62384C1.62135 7.45987 1.48937 7.26522 1.39933 7.051C1.30929 6.83677 1.26294 6.60716 1.26294 6.37528C1.26294 5.90699 1.45171 5.45787 1.78773 5.12673C2.12374 4.7956 2.57947 4.60957 3.05467 4.60957C3.52986 4.60957 3.9856 4.7956 4.32161 5.12673C4.65762 5.45787 4.84639 5.90699 4.84639 6.37528Z" stroke="#26262E" stroke-width="1.33333" stroke-linecap="round" stroke-linejoin="round"/>
</g>
</svg>
