<svg width="17" height="17" viewBox="0 0 17 17" fill="none" xmlns="http://www.w3.org/2000/svg">
<g opacity="0.4">
<path d="M15.1612 14.8278L12.0538 11.7149M12.0538 11.7149C13.1562 10.6109 13.7758 9.11481 13.7758 7.55456M12.0538 11.7149L12.0525 11.7164M13.7758 7.55456C13.7758 5.99299 13.1555 4.49539 12.0513 3.39119C10.9471 2.287 9.44948 1.66667 7.88791 1.66667C6.32635 1.66667 4.82874 2.287 3.72455 3.39119C2.62036 4.49539 2.00003 5.99299 2.00003 7.55456C2.00003 9.11612 2.62036 10.6137 3.72455 11.7179C4.82874 12.8221 6.32635 13.4424 7.88791 13.4424C9.44948 13.4424 10.9471 12.8221 12.0513 11.7179L12.0525 11.7164M13.7758 7.55456C13.7758 9.11546 13.1558 10.6123 12.0525 11.7164" stroke="#26262E" stroke-width="1.33333" stroke-linecap="round"/>
</g>
</svg>
